<?xml version="1.0" encoding="UTF-8" standalone="no"?>
<!-- Created with Inkscape (http://www.inkscape.org/) -->

<svg
   xmlns:dc="http://purl.org/dc/elements/1.1/"
   xmlns:cc="http://creativecommons.org/ns#"
   xmlns:rdf="http://www.w3.org/1999/02/22-rdf-syntax-ns#"
   xmlns:svg="http://www.w3.org/2000/svg"
   xmlns="http://www.w3.org/2000/svg"
   xmlns:sodipodi="http://sodipodi.sourceforge.net/DTD/sodipodi-0.dtd"
   xmlns:inkscape="http://www.inkscape.org/namespaces/inkscape"
   width="210mm"
   height="297mm"
   viewBox="0 0 210 297"
   version="1.1"
   id="svg8"
   inkscape:version="0.92.5 (0.92.5+68)"
   sodipodi:docname="Filament_Temperature.svg">
  <defs
     id="defs2" />
  <sodipodi:namedview
     id="base"
     pagecolor="#ffffff"
     bordercolor="#666666"
     borderopacity="1.0"
     inkscape:pageopacity="0.0"
     inkscape:pageshadow="2"
     inkscape:zoom="0.98994949"
     inkscape:cx="484.70159"
     inkscape:cy="702.94126"
     inkscape:document-units="mm"
     inkscape:current-layer="layer1"
     showgrid="false"
     inkscape:window-width="1855"
     inkscape:window-height="1056"
     inkscape:window-x="65"
     inkscape:window-y="24"
     inkscape:window-maximized="1" />
  <metadata
     id="metadata5">
    <rdf:RDF>
      <cc:Work
         rdf:about="">
        <dc:format>image/svg+xml</dc:format>
        <dc:type
           rdf:resource="http://purl.org/dc/dcmitype/StillImage" />
        <dc:title></dc:title>
      </cc:Work>
    </rdf:RDF>
  </metadata>
  <g
     inkscape:label="Layer 1"
     inkscape:groupmode="layer"
     id="layer1">
    <path
       inkscape:connector-curvature="0"
       id="path846"
       style="fill:none;stroke:#231f20;stroke-width:0.35270017;stroke-linecap:butt;stroke-linejoin:miter;stroke-miterlimit:2.61313009;stroke-dasharray:none;stroke-opacity:1"
       d="M 68.530237,35.282998 V 75.737369"
       inkscape:export-xdpi="92"
       inkscape:export-ydpi="92" />
    <path
       inkscape:connector-curvature="0"
       id="path848"
       style="fill:#231f20;fill-opacity:1;fill-rule:evenodd;stroke:none;stroke-width:0.03527778"
       d="m 69.459725,35.429401 -0.929488,-1.689806 -0.929485,1.689806 z"
       inkscape:export-xdpi="92"
       inkscape:export-ydpi="92" />
    <path
       inkscape:connector-curvature="0"
       id="path850"
       style="fill:none;stroke:#231f20;stroke-width:0.35270017;stroke-linecap:butt;stroke-linejoin:miter;stroke-miterlimit:2.61313009;stroke-dasharray:none;stroke-opacity:1"
       d="M 68.530237,75.730616 120.0926,75.881923"
       inkscape:export-xdpi="92"
       inkscape:export-ydpi="92" />
    <path
       inkscape:connector-curvature="0"
       id="path852"
       style="fill:#231f20;fill-opacity:1;fill-rule:evenodd;stroke:none;stroke-width:0.03527778"
       d="m 119.94867,74.951884 1.68698,0.934449 -1.69263,0.924665 z"
       inkscape:export-xdpi="92"
       inkscape:export-ydpi="92" />
    <path
       inkscape:connector-curvature="0"
       id="path854"
       style="fill:none;stroke:#0000ff;stroke-width:0.353;stroke-linecap:butt;stroke-linejoin:miter;stroke-miterlimit:2.61313009;stroke-dasharray:none;stroke-opacity:1"
       d="M 68.335521,68.18048 116.25332,35.544759"
       inkscape:export-xdpi="92"
       inkscape:export-ydpi="92" />
    <path
       inkscape:connector-curvature="0"
       id="path957"
       style="fill:#827354;fill-opacity:1;fill-rule:evenodd;stroke:none;stroke-width:0.03527778"
       d="m 134.99602,129.3784 0.22719,0.0568 c 0.248,-0.11892 0.26176,-0.0259 0.508,-0.23015 0.13864,-0.1149 0.28857,-0.24846 0.45755,-0.33705 0.26493,-0.1385 0.77046,-0.39772 1.13524,-0.39772 l 0.0568,-0.0566 0.62477,-0.11356 h 0.45438 c 0.23566,0 0.47131,0.0732 0.62442,0.17018 l 0.73836,0.4542 c 0.32844,0.21982 0.9084,0.98655 0.9084,1.53226 v 1.1351 c 0,0.34117 -0.41839,0.98403 -0.62476,1.13506 l -0.56762,0.51086 c -0.32809,0.28511 -1.8161,0.81481 -2.38478,0.45392 -0.20849,-0.13201 -0.74154,-0.22338 -1.02235,-0.39716 -0.3168,-0.19593 -0.55069,-0.33927 -0.9084,-0.51082 l -0.28399,0.0568 c 0.0885,0.0614 0.43568,0.20341 0.60784,0.30042 0.23142,0.13036 0.44061,0.30001 0.59231,0.37303 0.18838,0.0907 1.21144,0.46165 1.41182,0.46165 h 0.22718 c 0.88336,0 1.47074,-0.33169 1.99567,-0.67289 0.25682,-0.16704 0.46919,-0.41826 0.67239,-0.6331 0.44521,-0.46919 0.18944,-0.51096 0.44062,-0.90854 l 0.0713,-1.13397 c 0.0409,-0.57549 -0.57326,-1.40959 -0.85513,-1.69926 -0.35877,-0.36834 -1.05092,-0.79788 -1.75683,-0.79788 -0.71755,0 -1.41782,0.12249 -1.83163,0.43932 -0.17109,0.13077 -0.5147,0.27545 -0.72319,0.41257 -0.26317,0.17321 -0.57291,0.25534 -0.79551,0.39659"
       inkscape:export-xdpi="92"
       inkscape:export-ydpi="92" />
    <path
       inkscape:connector-curvature="0"
       id="path959"
       style="fill:#f5d960;fill-opacity:1;fill-rule:evenodd;stroke:none;stroke-width:0.03527778"
       d="m 139.36834,132.67028 -0.11359,0.0566 -0.0568,0.11356 0.45438,-0.0568 c -0.0773,0.28924 -0.30903,0.38929 -0.11359,0.45406 l 0.56762,-0.51086 0.27269,-0.45392 0.0113,-0.3973 h -0.17039 c -0.15311,0 -0.15628,0.027 -0.25576,0.0766 l -0.48119,0.67829 0.0557,0.0397 h -0.1704"
       inkscape:export-xdpi="92"
       inkscape:export-ydpi="92" />
    <path
       inkscape:connector-curvature="0"
       id="path961"
       style="fill:#f7f1e1;fill-opacity:1;fill-rule:evenodd;stroke:none;stroke-width:0.03527778"
       d="m 139.42514,130.5135 h -0.45438 c -0.13052,0 -0.17039,0.0396 -0.17039,0.17032 v 0.22698 c 0,0.19844 0.26176,0.51082 0.39758,0.51082 h 0.17039 c 0.20638,0 0.19932,-0.0674 0.39088,-0.11451 l 0.0635,-0.50987 v -0.17018 c -0.19861,-0.0462 -0.1912,-0.11356 -0.39758,-0.11356"
       inkscape:export-xdpi="92"
       inkscape:export-ydpi="92" />
    <path
       inkscape:connector-curvature="0"
       id="path963"
       style="fill:#f1e6ac;fill-opacity:1;fill-rule:evenodd;stroke:none;stroke-width:0.03527778"
       d="m 138.97076,132.61337 c 0.10725,-0.0717 0.34079,-0.29823 0.34079,-0.45406 0,-0.19554 -0.042,-0.21967 -0.0568,-0.39715 -0.1778,-0.0149 -0.20179,-0.0568 -0.39758,-0.0568 l -0.20743,-0.0122 -0.12771,-0.21541 -0.0621,-0.68047 v -0.17018 c 0,-0.16108 0.16228,-0.2183 0.22719,-0.3973 0.36266,0 0.4318,-0.11356 0.79481,-0.11356 h 0.11359 c 0.17816,0 0.62442,0.47103 0.62442,0.73784 l -0.0152,0.21537 -0.36689,0.41105 -0.072,0.50864 0.1704,-0.28374 h 0.45332 l 0.0575,-0.85132 v -0.0568 c 0,-0.358 -0.71967,-0.96478 -1.022,-0.96478 h -0.34078 c -0.19509,0 -0.79481,0.47957 -0.79481,0.68104 l -0.0145,0.22835 0.0713,0.90675 c 0.18168,0.27146 0.35489,0.28388 0.79481,0.28388 v 0.22683 c 0,0.0536 -0.13265,0.29309 -0.1704,0.45406"
       inkscape:export-xdpi="92"
       inkscape:export-ydpi="92" />
    <path
       inkscape:connector-curvature="0"
       id="path965"
       style="fill:#f1e18e;fill-opacity:1;fill-rule:evenodd;stroke:none;stroke-width:0.03527778"
       d="m 139.82272,128.92448 -0.115,1.4e-4 0.0582,0.45406 -0.90875,0.0565 c -0.27199,0.18232 -0.5274,0.20422 -0.63676,0.53894 l -0.34467,0.14347 0.15064,1.56874 0.20637,0.30275 c 0.16475,0.0181 0.45438,0.2624 0.45438,0.3973 v 0.28388 h -0.22719 v 0.22694 h -0.17039 v 0.11356 c 0.22684,0.14386 0.78952,-0.008 0.9084,-0.17032 l 0.0568,-0.11356 c -0.254,0.0919 -0.0434,0.17032 -0.28399,0.17032 l -0.36794,-0.0342 0.36794,-0.2497 c 0.0377,-0.16097 0.1704,-0.40047 0.1704,-0.45406 v -0.22683 c -0.43992,0 -0.61313,-0.0124 -0.79481,-0.28388 l -0.0713,-0.90675 0.0145,-0.22835 c 0,-0.20147 0.59972,-0.68104 0.79481,-0.68104 h 0.34078 c 0.30233,0 1.022,0.60678 1.022,0.96478 v 0.0568 l -0.0575,0.85132 h -0.45332 l -0.1704,0.28374 -0.39758,0.68118 h 0.1704 l -0.0557,-0.0397 0.48119,-0.67829 c 0.0995,-0.0496 0.10265,-0.0766 0.25576,-0.0766 h 0.17039 l -0.0113,0.3973 -0.27269,0.45392 c 0.20637,-0.15103 0.62476,-0.79389 0.62476,-1.13506 v -1.1351 c 0,-0.54571 -0.57996,-1.31244 -0.9084,-1.53226"
       inkscape:export-xdpi="92"
       inkscape:export-ydpi="92" />
    <path
       inkscape:connector-curvature="0"
       id="path967"
       style="fill:#f4ebc7;fill-opacity:1;fill-rule:evenodd;stroke:none;stroke-width:0.03527778"
       d="m 139.42514,130.5135 c 0.20638,0 0.19897,0.0674 0.39758,0.11356 v 0.17018 l -0.0635,0.50987 c -0.19156,0.0471 -0.1845,0.11451 -0.39088,0.11451 h -0.17039 c -0.13582,0 -0.39758,-0.31238 -0.39758,-0.51082 v -0.22698 c 0,-0.13077 0.0399,-0.17032 0.17039,-0.17032 z m -0.45438,2.09987 -0.36794,0.2497 0.36794,0.0342 c 0.2406,0 0.03,-0.0784 0.28399,-0.17032 l 0.11359,-0.0566 0.39758,-0.68118 0.072,-0.50864 0.36689,-0.41105 0.0152,-0.21537 c 0,-0.26681 -0.44626,-0.73784 -0.62442,-0.73784 H 139.482 c -0.36301,0 -0.43215,0.11356 -0.79481,0.11356 -0.0649,0.179 -0.22719,0.23622 -0.22719,0.3973 v 0.17018 l 0.0621,0.68047 0.12771,0.21541 0.20743,0.0122 c 0.19579,0 0.21978,0.0419 0.39758,0.0568 0.0148,0.17748 0.0568,0.20161 0.0568,0.39715 0,0.15583 -0.23354,0.38238 -0.34079,0.45406"
       inkscape:export-xdpi="92"
       inkscape:export-ydpi="92" />
    <path
       inkscape:connector-curvature="0"
       id="path969"
       style="fill:#f5d960;fill-opacity:1;fill-rule:evenodd;stroke:none;stroke-width:0.03527778"
       d="m 139.08436,128.47028 v 0.17032 h -0.34043 c -0.0159,0.1432 -0.28434,0.58389 -0.45438,0.51086 l -0.004,0.15875 -0.50765,0.12499 c -0.0332,0.4003 -0.28363,0.13448 -0.28363,0.45406 v 0.17032 c -0.12876,0.0343 -0.22754,0.0546 -0.22754,0.22698 v 1.19172 c 0,0.28952 0.15804,0.27093 0.22754,0.56762 h 0.34114 l 0.0561,0.22708 c 0.0801,0.0397 0.0945,0.0567 0.22719,0.0567 h 0.17039 c 0.0176,0.0665 0.0568,0.15472 0.0568,0.17032 0,0.35083 -0.2787,0.43723 -0.0568,0.51082 v -0.11356 h 0.17039 v -0.22694 h 0.22719 v -0.28388 c 0,-0.1349 -0.28963,-0.37924 -0.45438,-0.3973 l -0.20637,-0.30275 -0.15064,-1.56874 0.34467,-0.14347 c 0.10936,-0.33472 0.36477,-0.35662 0.63676,-0.53894 l 0.90875,-0.0565 -0.0582,-0.45406 0.115,-1.4e-4 -0.73836,-0.4542"
       inkscape:export-xdpi="92"
       inkscape:export-ydpi="92" />
    <path
       inkscape:connector-curvature="0"
       id="path971"
       style="fill:#f5d960;fill-opacity:1;fill-rule:evenodd;stroke:none;stroke-width:0.03527778"
       d="m 139.19795,132.84046 c -0.11888,0.16235 -0.68156,0.31418 -0.9084,0.17032 -0.2219,-0.0736 0.0568,-0.15999 0.0568,-0.51082 0,-0.0156 -0.0392,-0.10379 -0.0568,-0.17032 h -0.17039 c -0.13265,0 -0.14711,-0.017 -0.22719,-0.0567 l -0.0561,-0.22708 h -0.34114 c -0.0695,-0.29669 -0.22754,-0.2781 -0.22754,-0.56762 v -1.19172 c 0,-0.1724 0.0988,-0.19265 0.22754,-0.22698 v -0.17032 c 0,-0.31958 0.25047,-0.0538 0.28363,-0.45406 l 0.50765,-0.12499 0.004,-0.15875 c 0.17004,0.073 0.4385,-0.36766 0.45438,-0.51086 h 0.34043 v -0.17032 c -0.15311,-0.097 -0.38876,-0.17018 -0.62442,-0.17018 h -0.45438 l -0.62477,0.11356 c 0.42545,0 1.21462,-0.11508 1.30634,0.22694 -0.40852,0.0951 -0.59408,0.61228 -1.13594,0.62442 l 0.0494,0.034 -0.59972,0.87464 -0.0416,1.56037 0.25753,0.33514 0.27799,0.6011 h 0.45403 c -0.0279,0.33429 -0.1136,0.11821 -0.1136,0.3405 l 0.0215,0.12319 0.57397,0.30593 -0.14287,0.18549 -0.45262,0.0663 h -0.68121 c 0.56868,0.36089 2.05669,-0.16881 2.38478,-0.45392 -0.19544,-0.0648 0.0363,-0.16482 0.11359,-0.45406 l -0.45438,0.0568"
       inkscape:export-xdpi="92"
       inkscape:export-ydpi="92" />
    <path
       inkscape:connector-curvature="0"
       id="path973"
       style="fill:#efc723;fill-opacity:1;fill-rule:evenodd;stroke:none;stroke-width:0.03527778"
       d="m 137.38079,128.41366 -0.0568,0.0566 h 0.39758 v 0.11356 l -0.17957,0.0298 -0.39123,0.62794 -0.0663,-0.0302 0.0695,0.2238 h -0.22719 c -0.0476,0.56981 -0.45438,0.60399 -0.45438,0.79456 v 1.24852 c 0,0.0747 0.63923,1.0506 0.74013,1.46706 l 0.32526,0.068 0.0702,0.33793 0.50412,0.002 0.0579,0.20313 -0.33479,0.13519 0.45262,-0.0663 0.14287,-0.18549 -0.57397,-0.30593 -0.0215,-0.12319 c 0,-0.22229 0.0857,-0.006 0.1136,-0.3405 h -0.45403 l -0.27799,-0.6011 -0.25753,-0.33514 0.0416,-1.56037 0.59972,-0.87464 -0.0494,-0.034 c 0.54186,-0.0121 0.72742,-0.52931 1.13594,-0.62442 -0.0917,-0.34202 -0.88089,-0.22694 -1.30634,-0.22694"
       inkscape:export-xdpi="92"
       inkscape:export-ydpi="92" />
    <path
       inkscape:connector-curvature="0"
       id="path975"
       style="fill:#f3bb13;fill-opacity:1;fill-rule:evenodd;stroke:none;stroke-width:0.03527778"
       d="m 136.75638,133.06744 v -0.45407 h -0.22719 c -0.009,-0.39412 -0.3422,-0.978 -0.29916,-1.53391 l 0.12877,-1.41718 h 0.17039 v -0.3405 c -0.29739,0.0325 -0.28575,0.39716 -0.9652,0.39716 -0.19756,0 -0.0868,-0.11356 -0.28399,-0.11356 h -0.0568 c -0.23954,0 -0.043,0.14083 -0.40005,0.1699 l -0.0565,0.3339 -0.22472,0.0638 v 0.17032 c 0,0.40058 -0.17074,0.69921 -0.17074,1.13496 0,0.51414 0.57538,1.192 1.13594,1.192 0.12206,0.2304 0.59443,0.44386 0.84032,0.57891 0.0773,0.0426 1.06045,0.38586 1.09043,0.38586 h 0.0568 c 0.18521,0 0.18697,-0.0293 0.28363,-0.11355 -0.81703,0 -0.25435,-0.39014 -1.02199,-0.45406"
       inkscape:export-xdpi="92"
       inkscape:export-ydpi="92" />
    <path
       inkscape:connector-curvature="0"
       id="path977"
       style="fill:#efc723;fill-opacity:1;fill-rule:evenodd;stroke:none;stroke-width:0.03527778"
       d="m 136.75638,133.06744 c 0.76764,0.0639 0.20496,0.45406 1.02199,0.45406 -0.0967,0.0842 -0.0984,0.11355 -0.28363,0.11355 h -0.0568 c -0.03,0 -1.01317,-0.34328 -1.09043,-0.38586 -0.24589,-0.13505 -0.71826,-0.34851 -0.84032,-0.57891 -0.56056,0 -1.13594,-0.67786 -1.13594,-1.192 0,-0.43575 0.17074,-0.73438 0.17074,-1.13496 V 130.173 l 0.22472,-0.0638 0.0565,-0.3339 c 0.35701,-0.0291 0.16051,-0.1699 0.40005,-0.1699 h 0.0568 c 0.19721,0 0.0864,0.11356 0.28399,0.11356 0.67945,0 0.66781,-0.36463 0.9652,-0.39716 v 0.3405 h -0.17039 l -0.12877,1.41718 c -0.043,0.55591 0.29034,1.13979 0.29916,1.53391 h 0.22719 z m 0.56762,-4.59716 c -0.36478,0 -0.87031,0.25922 -1.13524,0.39772 -0.16898,0.0886 -0.31891,0.22215 -0.45755,0.33705 -0.24624,0.20422 -0.26,0.11123 -0.508,0.23015 -0.29704,0.15723 -0.49495,0.20973 -0.65723,0.53509 -0.0328,0.0663 -0.25118,0.9131 -0.25118,0.94051 v 0.96488 c 0,0.44002 0.60255,0.74623 0.90841,0.90802 0.35771,0.17155 0.5916,0.31489 0.9084,0.51082 0.28081,0.17378 0.81386,0.26515 1.02235,0.39716 h 0.68121 l 0.33479,-0.13519 -0.0579,-0.20313 -0.50412,-0.002 -0.0702,-0.33793 -0.32526,-0.068 c -0.1009,-0.41646 -0.74013,-1.39238 -0.74013,-1.46706 v -1.24852 c 0,-0.19057 0.40675,-0.22475 0.45438,-0.79456 h 0.22719 l -0.0695,-0.2238 0.0663,0.0302 0.39123,-0.62794 0.17957,-0.0298 v -0.11356 H 137.324"
       inkscape:export-xdpi="92"
       inkscape:export-ydpi="92" />
    <path
       inkscape:connector-curvature="0"
       id="path979"
       style="fill:#ce894d;fill-opacity:1;fill-rule:evenodd;stroke:none;stroke-width:0.03527778"
       d="m 131.58924,131.81878 0.002,0.16069 0.96344,0.17984 v 0.22709 c 0.0505,-0.0284 0.1136,-0.0369 0.1136,-0.11342 0,-0.15928 -0.0681,-0.13836 -0.16581,-0.2606 l 1.47179,0.2037 v -0.2836 h -0.1136 v -1.19186 c 0,-0.0779 0.139,-0.54656 0.17004,-0.68393 l -1.8736,0.11631 c -0.29422,0.1972 -0.51082,0.52694 -0.51082,1.02154 0,0.39645 0.18309,0.52296 0.34078,0.73794 l -0.23424,0.008 -0.16334,-0.12181"
       inkscape:export-xdpi="92"
       inkscape:export-ydpi="92" />
    <path
       inkscape:connector-curvature="0"
       id="path981"
       style="fill:#805953;fill-opacity:1;fill-rule:evenodd;stroke:none;stroke-width:0.03527778"
       d="m 132.49764,130.00268 -0.9652,0.11352 c -0.0109,0.4844 -0.22719,0.3248 -0.22719,0.7946 v 0.11356 c 0,0.34463 0.0265,0.70128 0.28399,0.79442 l 0.16334,0.12181 0.23424,-0.008 c -0.15769,-0.21498 -0.34078,-0.34149 -0.34078,-0.73794 0,-0.4946 0.2166,-0.82434 0.51082,-1.02154 l 1.8736,-0.11631 c -0.031,0.13737 -0.17004,0.60607 -0.17004,0.68393 v 1.19186 h 0.1136 l -0.0568,-0.96492 0.0113,0.007 0.2159,1.29879 h 0.17039 c -0.0571,-0.24472 -0.17039,-0.31087 -0.17039,-0.62438 v -0.3405 c 0,-0.88981 0.26705,-1.03036 0.37959,-1.605 l -0.41099,0.47597 -0.0258,-0.18027 -1.58962,0.004"
       inkscape:export-xdpi="92"
       inkscape:export-ydpi="92" />
    <path
       inkscape:connector-curvature="0"
       id="path983"
       style="fill:#7e3a3f;fill-opacity:1;fill-rule:evenodd;stroke:none;stroke-width:0.03527778"
       d="m 133.97402,131.93248 v 0.2836 l -1.47179,-0.2037 c 0.0977,0.12224 0.16581,0.10132 0.16581,0.2606 0,0.0765 -0.0631,0.085 -0.1136,0.11342 -0.25188,0.52475 -0.5468,1.0783 -1.30598,1.0783 -0.2921,0 -0.39794,-0.16644 -0.62477,-0.22694 -0.012,-0.54007 -0.39723,-0.53676 -0.39723,-1.36208 v -0.85132 c 0,-0.55425 0.33655,-1.20001 0.56762,-1.5324 -0.11748,-0.35429 -0.5207,0.65829 -0.58067,0.95183 -0.0998,0.4892 -0.15734,0.9766 -0.15734,1.60211 v 0.17018 c 0,0.14619 0.12488,0.167 0.11359,0.68114 0.34925,0.029 0.21379,0.19018 0.34043,0.4541 h -0.22683 c -0.26282,-0.17572 -0.90206,-0.38213 -1.08832,-0.6149 -0.13265,-0.1651 -0.38806,-1.00721 -0.38806,-1.37156 0,-0.22888 0.012,-0.33348 0.17039,-0.3973 l 0.0155,-0.46369 0.0981,0.12319 c -0.0194,-0.23315 -0.0568,-0.12679 -0.0568,-0.3405 0,-0.1155 0.13123,-0.35666 0.29069,-0.39952 l -0.0639,-0.22476 c 0.31256,-0.11313 0.248,-0.26292 0.54433,-0.3642 0.27058,-0.0926 0.53764,-0.31694 0.59161,-0.31694 l 0.40429,0.002 -0.0635,0.22532 0.22683,-0.11413 v 0.11342 h 0.1136 c 0.12312,-0.0823 0.18908,-0.17018 0.39758,-0.17018 h 0.39722 c 0.25471,0 0.60467,0.72362 0.62477,0.96478 l 1.58962,-0.004 0.0258,0.18027 0.41099,-0.47597 c -0.11254,0.57464 -0.37959,0.71519 -0.37959,1.605 v 0.3405 c 0,0.31351 0.11324,0.37966 0.17039,0.62438 h -0.17039 l -0.2159,-1.29879 -0.0113,-0.007 z m 1.022,-2.55408 c -0.40252,0.19322 -0.31539,0.0758 -0.72743,0.35126 -0.16193,0.10806 -0.53693,0.21636 -0.80575,0.21636 h -0.68121 c -0.21766,0 -0.50553,-1.1351 -0.90876,-1.1351 h -1.47602 c -0.51364,0 -0.95461,0.34315 -1.13524,0.68161 -0.0787,0.14718 -0.29174,0.42072 -0.35101,0.55728 -0.10901,0.2516 -0.007,0.38873 -0.21731,0.69081 v 1.41869 c 0.21696,0.34188 0.29563,0.9088 0.70802,1.16541 0.39511,0.24581 0.90241,0.36696 1.50636,0.36696 h 0.1136 c 0.41804,0 1.02799,-0.21139 1.20438,-0.44207 0.13688,-0.17875 0.55069,-0.79252 0.55598,-1.03353 0.58314,0 0.75671,0.0948 1.21497,0.2045 0.17497,0.0419 0.82761,0.34699 0.94262,0.41988 l 0.28399,-0.0568 c -0.30586,-0.16179 -0.90841,-0.468 -0.90841,-0.90802 v -0.96488 c 0,-0.0274 0.21837,-0.87422 0.25118,-0.94051 0.16228,-0.32536 0.36019,-0.37786 0.65723,-0.53509 l -0.22719,-0.0568"
       inkscape:export-xdpi="92"
       inkscape:export-ydpi="92" />
    <path
       inkscape:connector-curvature="0"
       id="path985"
       style="fill:#e96f38;fill-opacity:1;fill-rule:evenodd;stroke:none;stroke-width:0.03527778"
       d="m 131.58924,131.81878 c -0.25753,-0.0931 -0.28399,-0.44979 -0.28399,-0.79442 v -0.11356 c 0,-0.4698 0.21626,-0.3102 0.22719,-0.7946 l 0.9652,-0.11352 c -0.0201,-0.24116 -0.37006,-0.96478 -0.62477,-0.96478 h -0.39722 c -0.2085,0 -0.27446,0.0879 -0.39758,0.17018 l -0.28399,0.28388 c -0.23107,0.33239 -0.56762,0.97815 -0.56762,1.5324 v 0.85132 c 0,0.82532 0.38523,0.82201 0.39723,1.36208 0.22683,0.0605 0.33267,0.22694 0.62477,0.22694 0.75918,0 1.0541,-0.55355 1.30598,-1.0783 v -0.22709 l -0.96344,-0.17984 -0.002,-0.16069"
       inkscape:export-xdpi="92"
       inkscape:export-ydpi="92" />
    <path
       inkscape:connector-curvature="0"
       id="path987"
       style="fill:#952f3b;fill-opacity:1;fill-rule:evenodd;stroke:none;stroke-width:0.03527778"
       d="m 130.79408,129.49196 0.28399,-0.28388 h -0.1136 v -0.11342 l -0.22683,0.11413 0.0635,-0.22532 -0.40429,-0.002 c -0.054,0 -0.32103,0.22433 -0.59161,0.31694 -0.29633,0.10128 -0.23177,0.25107 -0.54433,0.3642 l 0.0639,0.22476 c -0.15946,0.0429 -0.29069,0.28402 -0.29069,0.39952 0,0.21371 0.0374,0.10735 0.0568,0.3405 l -0.0981,-0.12319 -0.0155,0.46369 c -0.15839,0.0638 -0.17039,0.16842 -0.17039,0.3973 0,0.36435 0.25541,1.20646 0.38806,1.37156 0.18626,0.23277 0.8255,0.43918 1.08832,0.6149 h 0.22683 c -0.12664,-0.26392 0.009,-0.42514 -0.34043,-0.4541 0.0113,-0.51414 -0.11359,-0.53495 -0.11359,-0.68114 v -0.17018 c 0,-0.62551 0.0575,-1.11291 0.15734,-1.60211 0.06,-0.29354 0.46319,-1.30612 0.58067,-0.95183"
       inkscape:export-xdpi="92"
       inkscape:export-ydpi="92" />
    <path
       inkscape:connector-curvature="0"
       id="path989"
       style="fill:none;stroke:#231f20;stroke-width:0.35270017;stroke-linecap:butt;stroke-linejoin:miter;stroke-miterlimit:2.61313009;stroke-dasharray:none;stroke-opacity:1"
       d="m 88.437778,98.987442 h 5.675595 c 0.997303,0 1.813207,0.815622 1.813207,1.812928 v 12.21846 c 0,0.9973 -0.815904,1.81292 -1.813207,1.81292 h -5.675595 c -0.997268,0 -1.813066,-0.81562 -1.813066,-1.81292 v -12.21846 c 0,-0.997306 0.815798,-1.812928 1.813066,-1.812928 z"
       inkscape:export-xdpi="92"
       inkscape:export-ydpi="92" />
    <path
       inkscape:connector-curvature="0"
       id="path991"
       style="fill:none;stroke:#231f20;stroke-width:0.35270017;stroke-linecap:butt;stroke-linejoin:miter;stroke-miterlimit:2.61313009;stroke-dasharray:none;stroke-opacity:1"
       d="m 87.807188,100.7217 h 7.015727 v 2.60103 h -7.015727 z"
       inkscape:export-xdpi="92"
       inkscape:export-ydpi="92" />
    <path
       inkscape:connector-curvature="0"
       id="path993"
       style="fill:none;stroke:#231f20;stroke-width:0.35270017;stroke-linecap:butt;stroke-linejoin:miter;stroke-miterlimit:2.61313009;stroke-dasharray:none;stroke-opacity:1"
       d="m 91.196888,106.63849 c 1.077207,0 1.950897,0.84525 1.950897,1.88701 0,1.0421 -0.87369,1.88736 -1.950897,1.88736 -1.077489,0 -1.951143,-0.84526 -1.951143,-1.88736 0,-1.04176 0.873654,-1.88701 1.951143,-1.88701 z"
       inkscape:export-xdpi="92"
       inkscape:export-ydpi="92" />
    <path
       inkscape:connector-curvature="0"
       id="path995"
       style="fill:#393536;fill-opacity:1;fill-rule:evenodd;stroke:none;stroke-width:0.03527778"
       d="m 89.384069,109.16508 3.015016,-2.00131 0.283739,0.23531 0.326601,0.4392 -3.255045,2.04894 -0.193781,-0.28222 -0.17653,-0.43992"
       inkscape:export-xdpi="92"
       inkscape:export-ydpi="92" />
    <path
       inkscape:connector-curvature="0"
       id="path997"
       style="fill:none;stroke:#231f20;stroke-width:0.07620001;stroke-linecap:butt;stroke-linejoin:miter;stroke-miterlimit:2.61313009;stroke-dasharray:none;stroke-opacity:1"
       d="m 89.384069,109.16508 3.015016,-2.00131 0.283739,0.23531 0.326601,0.4392 -3.255045,2.04894 -0.193781,-0.28222 z"
       inkscape:export-xdpi="92"
       inkscape:export-ydpi="92" />
    <path
       inkscape:connector-curvature="0"
       id="path999"
       style="fill:none;stroke:#231f20;stroke-width:0.35270017;stroke-linecap:butt;stroke-linejoin:miter;stroke-miterlimit:2.61313009;stroke-dasharray:none;stroke-opacity:1"
       d="m 93.756997,112.92922 c 0.359269,0 0.650452,0.30057 0.650452,0.67134 0,0.37041 -0.291183,0.67098 -0.650452,0.67098 -0.358951,0 -0.650275,-0.30057 -0.650275,-0.67098 0,-0.37077 0.291324,-0.67134 0.650275,-0.67134 z"
       inkscape:export-xdpi="92"
       inkscape:export-ydpi="92" />
    <path
       inkscape:connector-curvature="0"
       id="path1001"
       style="fill:none;stroke:#231f20;stroke-width:0.35270017;stroke-linecap:butt;stroke-linejoin:miter;stroke-miterlimit:2.61313009;stroke-dasharray:none;stroke-opacity:1"
       d="m 91.949998,112.92922 c 0.359128,0 0.650417,0.30057 0.650417,0.67134 0,0.37041 -0.291289,0.67098 -0.650417,0.67098 -0.359127,0 -0.65031,-0.30057 -0.65031,-0.67098 0,-0.37077 0.291183,-0.67134 0.65031,-0.67134 z"
       inkscape:export-xdpi="92"
       inkscape:export-ydpi="92" />
    <path
       inkscape:connector-curvature="0"
       id="path1003"
       style="fill:none;stroke:#231f20;stroke-width:0.35270017;stroke-linecap:butt;stroke-linejoin:miter;stroke-miterlimit:2.61313009;stroke-dasharray:none;stroke-opacity:1"
       d="m 88.335825,112.92922 c 0.359093,0 0.650417,0.30057 0.650417,0.67134 0,0.37041 -0.291324,0.67098 -0.650417,0.67098 -0.359128,0 -0.65031,-0.30057 -0.65031,-0.67098 0,-0.37077 0.291182,-0.67134 0.65031,-0.67134 z"
       inkscape:export-xdpi="92"
       inkscape:export-ydpi="92" />
    <path
       inkscape:connector-curvature="0"
       id="path1005"
       style="fill:none;stroke:#231f20;stroke-width:0.1763007;stroke-linecap:butt;stroke-linejoin:miter;stroke-miterlimit:2.61313009;stroke-dasharray:none;stroke-opacity:1"
       d="m 95.096177,108.29513 c 5.64e-4,0.0307 0.0011,0.0631 0.0011,0.0945 0,2.11419 -1.782904,3.82905 -3.981168,3.82905 -2.198229,0 -3.981133,-1.71486 -3.981133,-3.82905 0,-2.11455 1.782904,-3.82905 3.981133,-3.82905"
       inkscape:export-xdpi="92"
       inkscape:export-ydpi="92" />
    <text
       style="font-variant:normal;font-weight:normal;font-size:1.50567687px;font-family:ArialMT;-inkscape-font-specification:ArialMT;writing-mode:lr-tb;fill:#231f20;fill-opacity:1;fill-rule:nonzero;stroke:none;stroke-width:0.35277781"
       id="text1011"
       x="89.725983"
       y="102.26933"
       inkscape:export-xdpi="92"
       inkscape:export-ydpi="92">
      <tspan
         x="89.725983 90.563141 90.981712 91.818871 92.991524"
         y="102.26933"
         sodipodi:role="line"
         id="tspan1009"
         style="stroke-width:0.35277781">0.70A</tspan>
    </text>
    <text
       style="font-variant:normal;font-weight:normal;font-size:1.14818239px;font-family:ArialMT;-inkscape-font-specification:ArialMT;writing-mode:lr-tb;fill:#231f20;fill-opacity:1;fill-rule:nonzero;stroke:none;stroke-width:0.35277781"
       id="text1015"
       x="93.249763"
       y="107.61667"
       inkscape:export-xdpi="92"
       inkscape:export-ydpi="92">
      <tspan
         x="93.249763"
         y="107.61667"
         id="tspan1013"
         style="stroke-width:0.35277781">A</tspan>
    </text>
    <path
       inkscape:connector-curvature="0"
       id="path1017"
       style="fill:none;stroke:#231f20;stroke-width:0.35270017;stroke-linecap:butt;stroke-linejoin:miter;stroke-miterlimit:2.61313009;stroke-dasharray:none;stroke-opacity:1"
       d="m 62.161903,123.15438 h 21.521383 c 0.192934,0 0.350696,0.15762 0.350696,0.35055 v 21.03396 c 0,0.19293 -0.157762,0.35073 -0.350696,0.35073 H 62.161903 c -0.192927,0 -0.350573,-0.1578 -0.350573,-0.35073 v -21.03396 c 0,-0.19293 0.157646,-0.35055 0.350573,-0.35055 z"
       inkscape:export-xdpi="92"
       inkscape:export-ydpi="92" />
    <path
       inkscape:connector-curvature="0"
       id="path1019"
       style="fill:none;stroke:#231f20;stroke-width:0.35270017;stroke-linecap:butt;stroke-linejoin:miter;stroke-miterlimit:2.61313009;stroke-dasharray:none;stroke-opacity:1"
       d="m 72.961169,129.1691 c 2.113633,0 3.827639,1.68342 3.827639,3.75927 0,2.07574 -1.714006,3.75931 -3.827639,3.75931 -2.113492,0 -3.827498,-1.68357 -3.827498,-3.75931 0,-2.07585 1.714006,-3.75927 3.827498,-3.75927 z"
       inkscape:export-xdpi="92"
       inkscape:export-ydpi="92" />
    <path
       inkscape:connector-curvature="0"
       id="path1021"
       style="fill:none;stroke:#231f20;stroke-width:0.35270017;stroke-linecap:butt;stroke-linejoin:miter;stroke-miterlimit:2.61313009;stroke-dasharray:none;stroke-opacity:1"
       d="m 72.96131,129.83193 c 1.740888,0 3.152811,1.3866 3.152811,3.09644 0,1.70988 -1.411923,3.09661 -3.152811,3.09661 -1.740888,0 -3.15281,-1.38673 -3.15281,-3.09661 0,-1.70984 1.411922,-3.09644 3.15281,-3.09644 z"
       inkscape:export-xdpi="92"
       inkscape:export-ydpi="92" />
    <path
       inkscape:connector-curvature="0"
       id="path1031"
       style="fill:none;stroke:#231f20;stroke-width:0.35270017;stroke-linecap:butt;stroke-linejoin:miter;stroke-miterlimit:2.61313009;stroke-dasharray:none;stroke-opacity:1"
       d="m 66.878116,139.1483 c 0.415043,0 0.75184,0.30607 0.75184,0.68351 0,0.37729 -0.336797,0.68351 -0.75184,0.68351 -0.41522,0 -0.751876,-0.30622 -0.751876,-0.68351 0,-0.37744 0.336656,-0.68351 0.751876,-0.68351 z"
       inkscape:export-xdpi="92"
       inkscape:export-ydpi="92" />
    <path
       inkscape:connector-curvature="0"
       id="path1033"
       style="fill:none;stroke:#231f20;stroke-width:0.35270017;stroke-linecap:butt;stroke-linejoin:miter;stroke-miterlimit:2.61313009;stroke-dasharray:none;stroke-opacity:1"
       d="m 66.878116,142.28196 c 0.415043,0 0.75184,0.30607 0.75184,0.6835 0,0.3773 -0.336797,0.68351 -0.75184,0.68351 -0.41522,0 -0.751876,-0.30621 -0.751876,-0.68351 0,-0.37743 0.336656,-0.6835 0.751876,-0.6835 z"
       inkscape:export-xdpi="92"
       inkscape:export-ydpi="92" />
    <text
       style="font-style:italic;font-variant:normal;font-weight:normal;font-size:3.52774262px;font-family:TimesNewRomanPSMT;-inkscape-font-specification:TimesNewRomanPSMT-NormalItalic;writing-mode:lr-tb;fill:#231f20;fill-opacity:1;fill-rule:nonzero;stroke:none;stroke-width:0.35277781"
       id="text1039"
       x="66.813591"
       y="120.40077">
      <tspan
         sodipodi:role="line"
         id="tspan1037"
         style="stroke-width:0.35277781"
         x="66.813591"
         y="123.522" />
    </text>
    <path
       inkscape:connector-curvature="0"
       id="path1041"
       style="fill:none;stroke:#231f20;stroke-width:0.35270017;stroke-linecap:butt;stroke-linejoin:miter;stroke-miterlimit:2.61313009;stroke-dasharray:none;stroke-opacity:1"
       d="M 130.36616,118.4769 95.92658,118.09876"
       inkscape:export-xdpi="92"
       inkscape:export-ydpi="92" />
    <path
       inkscape:connector-curvature="0"
       id="path1043"
       style="fill:none;stroke:#231f20;stroke-width:0.35270017;stroke-linecap:butt;stroke-linejoin:miter;stroke-miterlimit:2.61313009;stroke-dasharray:none;stroke-opacity:1"
       d="m 66.878116,142.96546 -0.06904,6.68321 63.557084,0.64961"
       inkscape:export-xdpi="92"
       inkscape:export-ydpi="92" />
    <path
       inkscape:connector-curvature="0"
       id="path1045"
       style="fill:none;stroke:#231f20;stroke-width:0.35270017;stroke-linecap:butt;stroke-linejoin:miter;stroke-miterlimit:2.61313009;stroke-dasharray:none;stroke-opacity:1"
       d="m 91.949998,113.60056 0.21964,4.56282 3.756942,-0.0646"
       inkscape:export-xdpi="92"
       inkscape:export-ydpi="92" />
    <path
       inkscape:connector-curvature="0"
       id="path1047"
       style="fill:none;stroke:#231f20;stroke-width:0.35270017;stroke-linecap:butt;stroke-linejoin:miter;stroke-miterlimit:2.61313009;stroke-dasharray:none;stroke-opacity:1"
       d="m 66.878116,139.83181 21.463495,-0.13575 -0.0058,-26.0955"
       inkscape:export-xdpi="92"
       inkscape:export-ydpi="92" />
    <path
       inkscape:connector-curvature="0"
       id="path1049"
       style="fill:none;stroke:#231f20;stroke-width:0.35270017;stroke-linecap:butt;stroke-linejoin:miter;stroke-miterlimit:2.61313009;stroke-dasharray:none;stroke-opacity:1"
       d="m 101.97672,124.85706 h 5.67549 c 0.9973,0 1.81328,0.8158 1.81328,1.81324 v 12.21836 c 0,0.99716 -0.81598,1.81296 -1.81328,1.81296 h -5.67549 c -0.9973,0 -1.81293,-0.8158 -1.81293,-1.81296 V 126.6703 c 0,-0.99744 0.81563,-1.81324 1.81293,-1.81324 z"
       inkscape:export-xdpi="92"
       inkscape:export-ydpi="92" />
    <path
       inkscape:connector-curvature="0"
       id="path1051"
       style="fill:none;stroke:#231f20;stroke-width:0.35270017;stroke-linecap:butt;stroke-linejoin:miter;stroke-miterlimit:2.61313009;stroke-dasharray:none;stroke-opacity:1"
       d="m 101.34595,126.59132 h 7.01605 v 2.60149 h -7.01605 z"
       inkscape:export-xdpi="92"
       inkscape:export-ydpi="92" />
    <path
       inkscape:connector-curvature="0"
       id="path1053"
       style="fill:none;stroke:#231f20;stroke-width:0.35270017;stroke-linecap:butt;stroke-linejoin:miter;stroke-miterlimit:2.61313009;stroke-dasharray:none;stroke-opacity:1"
       d="m 104.73579,132.50821 c 1.07739,0 1.95087,0.84515 1.95087,1.88708 0,1.04207 -0.87348,1.88722 -1.95087,1.88722 -1.07738,0 -1.95121,-0.84515 -1.95121,-1.88722 0,-1.04193 0.87383,-1.88708 1.95121,-1.88708 z"
       inkscape:export-xdpi="92"
       inkscape:export-ydpi="92" />
    <path
       inkscape:connector-curvature="0"
       id="path1055"
       style="fill:#393536;fill-opacity:1;fill-rule:evenodd;stroke:none;stroke-width:0.03527778"
       d="m 102.92287,135.03498 3.01519,-2.00131 0.28363,0.23524 0.32668,0.43931 -3.25508,2.04886 -0.19368,-0.28222 -0.17674,-0.43988"
       inkscape:export-xdpi="92"
       inkscape:export-ydpi="92" />
    <path
       inkscape:connector-curvature="0"
       id="path1057"
       style="fill:none;stroke:#231f20;stroke-width:0.07620001;stroke-linecap:butt;stroke-linejoin:miter;stroke-miterlimit:2.61313009;stroke-dasharray:none;stroke-opacity:1"
       d="m 102.92287,135.03498 3.01519,-2.00131 0.28363,0.23524 0.32668,0.43931 -3.25508,2.04886 -0.19368,-0.28222 z"
       inkscape:export-xdpi="92"
       inkscape:export-ydpi="92" />
    <path
       inkscape:connector-curvature="0"
       id="path1059"
       style="fill:none;stroke:#231f20;stroke-width:0.35270017;stroke-linecap:butt;stroke-linejoin:miter;stroke-miterlimit:2.61313009;stroke-dasharray:none;stroke-opacity:1"
       d="m 107.2959,138.79909 c 0.35913,0 0.65053,0.3007 0.65053,0.67112 0,0.37056 -0.2914,0.67109 -0.65053,0.67109 -0.35877,0 -0.65017,-0.30053 -0.65017,-0.67109 0,-0.37042 0.2914,-0.67112 0.65017,-0.67112 z"
       inkscape:export-xdpi="92"
       inkscape:export-ydpi="92" />
    <path
       inkscape:connector-curvature="0"
       id="path1061"
       style="fill:none;stroke:#231f20;stroke-width:0.35270017;stroke-linecap:butt;stroke-linejoin:miter;stroke-miterlimit:2.61313009;stroke-dasharray:none;stroke-opacity:1"
       d="m 105.48898,138.79909 c 0.35912,0 0.65052,0.3007 0.65052,0.67112 0,0.37056 -0.2914,0.67109 -0.65052,0.67109 -0.35913,0 -0.65053,-0.30053 -0.65053,-0.67109 0,-0.37042 0.2914,-0.67112 0.65053,-0.67112 z"
       inkscape:export-xdpi="92"
       inkscape:export-ydpi="92" />
    <path
       inkscape:connector-curvature="0"
       id="path1063"
       style="fill:none;stroke:#231f20;stroke-width:0.1763007;stroke-linecap:butt;stroke-linejoin:miter;stroke-miterlimit:2.61313009;stroke-dasharray:none;stroke-opacity:1"
       d="m 108.63505,134.16503 c 7e-4,0.0309 10e-4,0.063 10e-4,0.0944 0,2.11444 -1.78294,3.82915 -3.9811,3.82915 -2.19816,0 -3.9811,-1.71471 -3.9811,-3.82915 0,-2.11434 1.78294,-3.82916 3.9811,-3.82916"
       inkscape:export-xdpi="92"
       inkscape:export-ydpi="92" />
    <text
       style="font-variant:normal;font-weight:normal;font-size:1.50567687px;font-family:ArialMT;-inkscape-font-specification:ArialMT;writing-mode:lr-tb;fill:#231f20;fill-opacity:1;fill-rule:nonzero;stroke:none;stroke-width:0.35277781"
       id="text1069"
       x="104.69628"
       y="128.59418"
       inkscape:export-xdpi="92"
       inkscape:export-ydpi="92">
      <tspan
         x="104.69628 105.53344 106.37059 106.78917"
         y="128.59418"
         sodipodi:role="line"
         id="tspan1067"
         style="stroke-width:0.35277781">70V</tspan>
    </text>
    <text
       style="font-variant:normal;font-weight:normal;font-size:1.14818239px;font-family:ArialMT;-inkscape-font-specification:ArialMT;writing-mode:lr-tb;fill:#231f20;fill-opacity:1;fill-rule:nonzero;stroke:none;stroke-width:0.35277781"
       id="text1073"
       x="106.78856"
       y="133.48663"
       inkscape:export-xdpi="92"
       inkscape:export-ydpi="92">
      <tspan
         x="106.78856"
         y="133.48663"
         id="tspan1071"
         style="stroke-width:0.35277781">V</tspan>
    </text>
    <path
       inkscape:connector-curvature="0"
       id="path1075"
       style="fill:none;stroke:#231f20;stroke-width:0.35270017;stroke-linecap:butt;stroke-linejoin:miter;stroke-miterlimit:2.61313009;stroke-dasharray:none;stroke-opacity:1"
       d="m 105.48898,139.47021 -0.031,4.15008 -12.321187,0.0459"
       inkscape:export-xdpi="92"
       inkscape:export-ydpi="92" />
    <path
       inkscape:connector-curvature="0"
       id="path1077"
       style="fill:none;stroke:#231f20;stroke-width:0.35270017;stroke-linecap:butt;stroke-linejoin:miter;stroke-miterlimit:2.61313009;stroke-dasharray:none;stroke-opacity:1"
       d="m 130.36616,118.4769 0.0497,11.08618"
       inkscape:export-xdpi="92"
       inkscape:export-ydpi="92" />
    <path
       inkscape:connector-curvature="0"
       id="path1079"
       style="fill:none;stroke:#231f20;stroke-width:0.35270017;stroke-linecap:butt;stroke-linejoin:miter;stroke-miterlimit:2.61313009;stroke-dasharray:none;stroke-opacity:1"
       d="m 130.36616,133.7169 0.0497,16.58138"
       inkscape:export-xdpi="92"
       inkscape:export-ydpi="92" />
    <path
       inkscape:connector-curvature="0"
       id="path1081"
       style="fill:none;stroke:#231f20;stroke-width:0.35270017;stroke-linecap:butt;stroke-linejoin:miter;stroke-miterlimit:2.61313009;stroke-dasharray:none;stroke-opacity:1"
       d="m 88.341611,139.69606 4.764687,0.008 0.03045,3.96184"
       inkscape:export-xdpi="92"
       inkscape:export-ydpi="92" />
    <path
       inkscape:connector-curvature="0"
       id="path1083"
       style="fill:none;stroke:#231f20;stroke-width:0.35270017;stroke-linecap:butt;stroke-linejoin:miter;stroke-miterlimit:2.61313009;stroke-dasharray:none;stroke-opacity:1"
       d="m 107.2959,139.47021 -0.10795,10.59118"
       inkscape:export-xdpi="92"
       inkscape:export-ydpi="92" />
    <text
       style="font-style:italic;font-variant:normal;font-weight:normal;font-size:3.52774262px;font-family:TimesNewRomanPSMT;-inkscape-font-specification:TimesNewRomanPSMT-NormalItalic;writing-mode:lr-tb;fill:#231f20;fill-opacity:1;fill-rule:nonzero;stroke:none;stroke-width:0.35277781"
       id="text1091"
       x="109.9936"
       y="135.64078">
      <tspan
         x="109.9936"
         y="138.76201"
         sodipodi:role="line"
         id="tspan1087"
         style="stroke-width:0.35277781" />
      <tspan
         sodipodi:role="line"
         id="tspan1089"
         style="stroke-width:0.35277781"
         x="109.9936"
         y="143.17168" />
    </text>
    <text
       xml:space="preserve"
       style="font-style:normal;font-weight:normal;font-size:4.93888855px;line-height:125%;font-family:sans-serif;letter-spacing:0px;word-spacing:0px;fill:#000000;fill-opacity:1;stroke:none;stroke-width:0.26458332px;stroke-linecap:butt;stroke-linejoin:miter;stroke-opacity:1"
       x="97.820648"
       y="107.50591"
       id="text1408"
       inkscape:export-xdpi="92"
       inkscape:export-ydpi="92"><tspan
         sodipodi:role="line"
         id="tspan1406"
         x="97.820648"
         y="107.50591"
         style="font-style:italic;font-variant:normal;font-weight:normal;font-stretch:normal;font-size:3.52777767px;font-family:sans-serif;-inkscape-font-specification:'sans-serif Italic';stroke-width:0.26458332px">Amperímetro</tspan></text>
    <text
       xml:space="preserve"
       style="font-style:normal;font-weight:normal;font-size:4.93888855px;line-height:125%;font-family:sans-serif;letter-spacing:0px;word-spacing:0px;fill:#000000;fill-opacity:1;stroke:none;stroke-width:0.26458332px;stroke-linecap:butt;stroke-linejoin:miter;stroke-opacity:1"
       x="110.40101"
       y="136.61307"
       id="text1408-6"
       inkscape:export-xdpi="92"
       inkscape:export-ydpi="92"><tspan
         sodipodi:role="line"
         id="tspan1406-3"
         x="110.40101"
         y="136.61307"
         style="font-style:italic;font-variant:normal;font-weight:normal;font-stretch:normal;font-size:3.52777767px;font-family:sans-serif;-inkscape-font-specification:'sans-serif Italic';stroke-width:0.26458332px">Voltímetro</tspan></text>
    <text
       xml:space="preserve"
       style="font-style:normal;font-weight:normal;font-size:4.93888855px;line-height:125%;font-family:sans-serif;letter-spacing:0px;word-spacing:0px;fill:#000000;fill-opacity:1;stroke:none;stroke-width:0.26458332px;stroke-linecap:butt;stroke-linejoin:miter;stroke-opacity:1"
       x="66.836075"
       y="120.71053"
       id="text1408-1"
       inkscape:export-xdpi="92"
       inkscape:export-ydpi="92"><tspan
         sodipodi:role="line"
         id="tspan1406-7"
         x="66.836075"
         y="120.71053"
         style="font-style:italic;font-variant:normal;font-weight:normal;font-stretch:normal;font-size:3.52777767px;font-family:sans-serif;-inkscape-font-specification:'sans-serif Italic';stroke-width:0.26458332px">Variac</tspan></text>
    <text
       xml:space="preserve"
       style="font-style:normal;font-weight:normal;font-size:2.11666656px;line-height:125%;font-family:sans-serif;letter-spacing:0px;word-spacing:0px;fill:#000000;fill-opacity:1;stroke:none;stroke-width:0.26458332px;stroke-linecap:butt;stroke-linejoin:miter;stroke-opacity:1"
       x="63.643555"
       y="126.08113"
       id="text1448"
       inkscape:export-xdpi="92"
       inkscape:export-ydpi="92"><tspan
         sodipodi:role="line"
         id="tspan1446"
         x="63.643555"
         y="126.08113"
         style="font-size:2.11666656px;stroke-width:0.26458332px">VARIAC, 8A, 60 Hz</tspan></text>
    <text
       xml:space="preserve"
       style="font-style:normal;font-weight:normal;font-size:2.11666656px;line-height:125%;font-family:sans-serif;letter-spacing:0px;word-spacing:0px;fill:#000000;fill-opacity:1;stroke:none;stroke-width:0.26458332px;stroke-linecap:butt;stroke-linejoin:miter;stroke-opacity:1"
       x="63.743778"
       y="128.35294"
       id="text1452"
       inkscape:export-xdpi="92"
       inkscape:export-ydpi="92"><tspan
         sodipodi:role="line"
         id="tspan1450"
         x="63.743778"
         y="128.35294"
         style="font-size:2.11666656px;stroke-width:0.26458332px">110 V</tspan></text>
    <text
       xml:space="preserve"
       style="font-style:normal;font-weight:normal;font-size:4.93888855px;line-height:125%;font-family:sans-serif;letter-spacing:0px;word-spacing:0px;fill:#000000;fill-opacity:1;stroke:none;stroke-width:0.26458332px;stroke-linecap:butt;stroke-linejoin:miter;stroke-opacity:1"
       x="70.826424"
       y="35.610405"
       id="text1456"
       inkscape:export-xdpi="92"
       inkscape:export-ydpi="92"><tspan
         sodipodi:role="line"
         id="tspan1454"
         x="70.826424"
         y="35.610405"
         style="font-style:italic;font-variant:normal;font-weight:normal;font-stretch:normal;font-family:sans-serif;-inkscape-font-specification:'sans-serif Italic';stroke-width:0.26458332px;font-size:3.88055556px">Log<tspan
   style="font-size:2.82222222px;baseline-shift:sub"
   id="tspan1458">10</tspan>(i)</tspan></text>
    <text
       id="text1464"
       y="72.894501"
       x="118.4004"
       style="font-style:normal;font-weight:normal;font-size:4.93888855px;line-height:125%;font-family:sans-serif;letter-spacing:0px;word-spacing:0px;fill:#000000;fill-opacity:1;stroke:none;stroke-width:0.26458332px;stroke-linecap:butt;stroke-linejoin:miter;stroke-opacity:1"
       xml:space="preserve"
       inkscape:export-xdpi="92"
       inkscape:export-ydpi="92"><tspan
         style="font-style:italic;font-variant:normal;font-weight:normal;font-stretch:normal;font-family:sans-serif;-inkscape-font-specification:'sans-serif Italic';stroke-width:0.26458332px"
         y="72.894501"
         x="118.4004"
         id="tspan1462"
         sodipodi:role="line"><tspan
   style="font-size:3.88055556px"
   id="tspan1466">Log</tspan><tspan
   id="tspan1460"
   style="font-size:2.82222222px;baseline-shift:sub">10</tspan><tspan
   style="font-size:3.88055556px"
   id="tspan1468">(P</tspan>)</tspan></text>
    <text
       xml:space="preserve"
       style="font-style:normal;font-weight:normal;font-size:4.93888855px;line-height:125%;font-family:sans-serif;letter-spacing:0px;word-spacing:0px;fill:#000000;fill-opacity:1;stroke:none;stroke-width:0.26458332px;stroke-linecap:butt;stroke-linejoin:miter;stroke-opacity:1"
       x="90.738007"
       y="56.85833"
       id="text1474"
       inkscape:export-xdpi="92"
       inkscape:export-ydpi="92"><tspan
         sodipodi:role="line"
         id="tspan1472"
         x="90.738007"
         y="56.85833"
         style="stroke-width:0.26458332px"><tspan
   style="font-size:3.88055563px"
   id="tspan1495">pendiente =</tspan> <tspan
   style="font-style:italic;font-variant:normal;font-weight:normal;font-stretch:normal;font-size:3.52777767px;font-family:sans-serif;-inkscape-font-specification:'sans-serif Italic'"
   id="tspan1476">m=</tspan></tspan></text>
    <text
       xml:space="preserve"
       style="font-style:normal;font-weight:normal;font-size:4.93888855px;line-height:125%;font-family:sans-serif;letter-spacing:0px;word-spacing:0px;fill:#000000;fill-opacity:1;stroke:none;stroke-width:0.26458332px;stroke-linecap:butt;stroke-linejoin:miter;stroke-opacity:1"
       x="124.01306"
       y="54.720173"
       id="text1480"
       inkscape:export-xdpi="92"
       inkscape:export-ydpi="92"><tspan
         sodipodi:role="line"
         id="tspan1478"
         x="124.01306"
         y="54.720173"
         style="font-size:3.52777767px;stroke-width:0.26458332px">4-β</tspan></text>
    <path
       style="fill:none;fill-rule:evenodd;stroke:#000000;stroke-width:0.21433984px;stroke-linecap:butt;stroke-linejoin:miter;stroke-opacity:1"
       d="m 123.61216,55.922885 h 6.31441"
       id="path1482"
       inkscape:connector-curvature="0"
       inkscape:export-xdpi="92"
       inkscape:export-ydpi="92" />
    <text
       id="text1486"
       y="59.474277"
       x="125.27114"
       style="font-style:normal;font-weight:normal;font-size:4.93888855px;line-height:125%;font-family:sans-serif;letter-spacing:0px;word-spacing:0px;fill:#000000;fill-opacity:1;stroke:none;stroke-width:0.26458332px;stroke-linecap:butt;stroke-linejoin:miter;stroke-opacity:1"
       xml:space="preserve"
       inkscape:export-xdpi="92"
       inkscape:export-ydpi="92"><tspan
         style="font-size:3.52777767px;stroke-width:0.26458332px"
         y="59.474277"
         x="125.27114"
         id="tspan1484"
         sodipodi:role="line">2β</tspan></text>
  </g>
</svg>
