<?xml version="1.0" standalone="no"?>
<!DOCTYPE svg PUBLIC "-//W3C//DTD SVG 20010904//EN"
 "http://www.w3.org/TR/2001/REC-SVG-20010904/DTD/svg10.dtd">
<svg version="1.0" xmlns="http://www.w3.org/2000/svg"
 width="1280.000000pt" height="696.000000pt" viewBox="0 0 1280.000000 696.000000"
 preserveAspectRatio="xMidYMid meet">
<metadata>
Created by potrace 1.15, written by Peter Selinger 2001-2017
</metadata>
<g transform="translate(0.000000,696.000000) scale(0.100000,-0.100000)"
fill="#000000" stroke="none">
<path d="M4400 6943 c0 -18 -61 -483 -75 -573 -68 -429 -158 -743 -288 -1010
-31 -63 -34 -66 -96 -91 -36 -14 -67 -31 -69 -37 -5 -16 11 -15 55 3 19 8 40
15 45 15 17 0 -82 -172 -322 -560 -215 -347 -342 -585 -405 -760 -14 -41 -53
-178 -86 -305 -33 -126 -61 -231 -63 -232 -2 -2 -140 -5 -307 -6 l-304 -2 -5
-353 -5 -353 -44 43 c-54 54 -94 133 -161 318 -74 207 -124 305 -187 368 -102
103 -208 131 -488 132 -104 0 -269 7 -365 15 -96 8 -187 15 -202 15 l-28 0 0
193 0 193 137 13 c269 25 494 77 758 176 323 121 481 254 617 519 45 89 58
107 64 91 26 -74 35 -88 46 -77 8 8 4 28 -13 76 l-23 66 35 72 c19 40 78 156
131 258 168 319 210 442 211 615 0 108 -29 362 -44 387 -19 30 -20 -10 -3
-124 10 -71 18 -178 18 -253 0 -179 -22 -247 -170 -540 -64 -126 -135 -267
-157 -312 -36 -72 -45 -84 -76 -94 -82 -27 -124 -50 -114 -60 8 -8 27 -5 67
10 31 12 59 21 61 21 11 0 -101 -210 -148 -278 -114 -166 -306 -287 -613 -388
-239 -79 -434 -120 -649 -139 -38 -3 -85 -8 -103 -11 l-32 -5 2 181 3 181 67
23 c97 34 217 98 343 181 258 172 452 394 559 640 18 41 35 78 39 81 3 3 13
-19 23 -50 10 -31 24 -56 31 -56 18 0 17 11 -14 86 l-26 67 18 66 c42 156 48
196 47 346 -1 195 -53 565 -79 565 -16 0 -17 7 7 -130 55 -313 62 -486 26
-661 -36 -173 -41 -181 -119 -210 -47 -17 -64 -28 -58 -37 6 -10 18 -8 56 8
26 11 50 19 52 16 9 -9 -62 -161 -115 -246 -145 -229 -365 -425 -636 -568 -64
-34 -204 -92 -222 -92 -2 0 -4 69 -4 153 l0 153 96 63 c201 132 363 334 424
531 l18 54 18 -57 c10 -31 24 -57 31 -57 18 0 17 11 -13 86 -26 63 -26 69 -15
147 16 115 14 385 -3 482 -36 198 -91 281 -271 408 -55 39 -152 111 -216 159
-110 83 -139 100 -139 79 0 -8 216 -172 360 -274 98 -68 149 -124 185 -202 40
-85 63 -191 71 -328 6 -105 -9 -337 -25 -379 -6 -17 -26 -30 -74 -47 -45 -16
-64 -27 -61 -36 5 -11 16 -10 60 7 30 12 57 19 59 16 3 -3 -3 -29 -14 -59 -68
-198 -208 -373 -404 -504 l-82 -55 -3 161 -3 162 69 71 c143 149 209 271 220
409 l7 79 50 -41 c52 -43 65 -49 65 -28 -1 6 -29 35 -64 62 -60 48 -63 53 -90
136 -15 48 -47 120 -72 160 -81 132 -164 203 -350 301 -128 67 -209 94 -218
73 -3 -9 11 -17 41 -24 52 -14 200 -86 290 -143 137 -87 261 -260 297 -417
l15 -64 -45 -53 c-30 -35 -41 -55 -33 -60 7 -4 25 9 46 32 l34 39 -4 -70 c-6
-110 -61 -209 -204 -371 l-53 -59 0 103 c0 99 1 105 30 140 75 94 110 247 76
335 -21 57 -91 123 -200 191 l-89 56 57 0 c42 0 56 3 53 13 -3 8 -27 11 -83 9
-72 -3 -87 1 -162 33 -96 40 -92 39 -92 22 0 -7 35 -28 79 -45 75 -31 79 -34
85 -70 3 -20 6 -54 6 -74 0 -21 5 -38 10 -38 6 0 10 29 10 66 0 76 -6 76 103
12 80 -47 171 -127 195 -173 33 -63 13 -187 -46 -285 l-27 -45 -3 143 -3 142
-499 0 -500 0 0 -2225 0 -2225 500 0 500 0 0 73 c1 67 2 71 16 52 43 -53 68
-130 72 -218 5 -100 3 -102 -63 -57 -24 17 -48 30 -54 30 -26 0 -7 -23 47 -57
31 -20 58 -37 60 -38 8 -6 -53 -167 -91 -240 -51 -99 -181 -234 -340 -353 -59
-44 -103 -83 -98 -87 14 -8 33 3 126 75 241 186 338 310 410 524 14 41 44 105
67 141 27 44 38 69 31 76 -7 7 -18 -4 -35 -32 l-25 -42 -6 78 c-8 86 -37 162
-87 225 -30 38 -30 39 -30 161 l1 124 90 -94 c49 -51 115 -132 146 -178 53
-81 112 -208 113 -246 0 -16 -5 -15 -43 8 -48 27 -57 30 -57 15 0 -5 25 -26
55 -46 35 -24 58 -46 62 -63 9 -36 -13 -270 -38 -393 -21 -106 -76 -336 -84
-349 -3 -4 2 -9 10 -13 16 -6 17 -3 64 190 44 178 63 304 70 454 l6 135 44 63
c29 44 40 67 33 74 -7 7 -22 -8 -48 -48 l-38 -59 -12 45 c-41 156 -162 343
-314 483 l-61 56 3 157 3 156 80 -52 c169 -110 355 -333 479 -575 53 -103 116
-248 111 -253 -2 -2 -21 8 -42 22 -38 26 -63 33 -63 17 0 -5 29 -28 65 -51 63
-41 66 -45 85 -109 34 -116 42 -190 49 -474 4 -176 10 -276 16 -275 15 4 12
484 -4 588 -6 47 -21 120 -33 162 l-20 77 37 61 c24 39 34 65 28 71 -6 6 -22
-11 -44 -46 l-35 -56 -42 99 c-106 249 -246 467 -396 617 -87 87 -232 195
-262 195 -11 0 -14 17 -14 75 0 41 3 75 6 75 4 0 70 -31 148 -69 233 -115 491
-314 766 -590 l165 -166 -48 -9 c-29 -6 -47 -15 -47 -23 0 -13 36 -12 92 3 33
9 293 -345 377 -515 61 -122 109 -279 166 -546 20 -93 38 -171 40 -173 45 -45
-55 417 -135 625 -54 141 -205 381 -342 546 -49 59 -56 73 -38 79 10 3 -11
152 -24 165 -15 15 -18 -12 -8 -74 6 -37 9 -69 6 -72 -3 -3 -71 62 -152 146
-325 334 -653 577 -929 686 l-43 17 0 161 0 161 27 -7 c52 -12 248 -114 357
-185 60 -39 189 -129 287 -200 229 -166 932 -630 1209 -797 118 -72 243 -148
278 -171 68 -44 68 -45 -20 -58 -44 -6 -59 -16 -40 -27 4 -3 40 1 81 8 l73 12
107 -64 c279 -170 434 -226 674 -242 341 -24 710 57 1048 231 254 130 380 253
746 734 67 88 175 220 240 294 65 73 132 150 149 169 l31 35 16 -30 c17 -33
44 -47 115 -63 63 -13 92 -36 92 -71 0 -61 -79 -87 -170 -55 -53 19 -50 19
-50 -10 0 -19 7 -26 38 -34 88 -25 199 -5 223 41 16 29 13 95 -4 122 -16 23
-56 42 -144 65 -50 14 -67 38 -53 76 17 43 80 56 153 31 36 -13 37 -13 37 10
0 29 -9 34 -75 41 -60 6 -65 11 -37 36 17 15 76 17 640 17 342 0 622 -2 622
-5 0 -3 -24 -38 -53 -78 -150 -204 -313 -478 -398 -671 -100 -224 -232 -688
-328 -1146 -17 -80 -33 -155 -36 -167 -4 -16 -1 -23 9 -23 10 0 18 19 26 57
89 439 207 884 307 1153 40 109 130 292 211 430 62 107 236 368 279 418 l28
33 472 -3 471 -3 -55 -95 c-30 -52 -77 -141 -104 -196 l-49 -102 -67 -25 c-37
-13 -69 -29 -71 -36 -6 -17 21 -13 73 9 26 11 48 20 50 20 2 0 -10 -37 -27
-82 -98 -270 -201 -669 -288 -1123 -45 -230 -106 -605 -102 -625 0 -2 5 -6 10
-8 6 -2 13 14 16 35 66 431 156 885 242 1228 48 187 161 545 173 545 4 0 15
-23 25 -50 10 -28 23 -49 30 -47 13 5 13 6 -16 83 l-22 61 32 73 c18 41 66
133 108 207 l76 133 374 0 c293 0 374 -3 373 -12 0 -7 -22 -74 -48 -148 l-48
-135 -72 -29 c-49 -19 -69 -32 -62 -39 7 -7 28 -3 66 11 30 12 55 20 55 19 0
-1 -16 -56 -35 -122 -48 -159 -123 -454 -179 -698 -72 -311 -197 -929 -191
-945 10 -26 22 -2 34 70 20 113 135 663 181 863 68 295 201 799 216 814 4 4 6
-1 27 -63 13 -39 37 -61 37 -34 0 8 -11 43 -25 79 l-25 64 52 153 52 152 204
0 204 0 -6 -57 c-3 -36 1 -104 13 -178 l18 -120 -60 -56 c-41 -37 -58 -59 -53
-68 6 -9 23 1 61 39 l52 52 6 -29 c6 -32 -7 -285 -23 -438 -22 -216 -52 -443
-96 -725 -54 -352 -52 -332 -38 -337 7 -2 14 14 18 39 105 646 166 1145 166
1373 l0 90 33 -39 c21 -25 38 -37 46 -32 8 6 0 20 -27 50 -22 24 -44 52 -50
62 -12 24 -42 227 -42 286 0 87 0 87 109 90 l96 3 0 268 c0 147 0 267 0 267 0
0 56 -55 125 -123 199 -194 319 -275 452 -304 85 -18 279 -20 443 -4 61 6 156
11 213 11 l102 0 0 -145 c0 -125 -2 -145 -16 -145 -30 0 -343 -109 -450 -158
-230 -103 -393 -237 -471 -388 -49 -94 -89 -224 -99 -314 -6 -62 -9 -68 -61
-122 -34 -34 -53 -61 -48 -68 5 -8 21 2 51 31 l44 43 0 -79 c0 -78 14 -250 44
-530 8 -77 18 -200 22 -272 4 -73 11 -133 15 -133 5 0 9 48 9 108 -1 110 -5
168 -40 502 -11 107 -20 244 -20 305 l0 109 49 -48 c32 -32 51 -44 56 -36 4 7
-15 32 -49 63 -53 50 -55 54 -50 92 44 317 155 487 419 643 119 70 446 198
558 218 l37 6 0 -189 0 -188 -52 -32 c-86 -51 -213 -159 -262 -221 -97 -121
-131 -217 -142 -403 l-6 -104 -56 -57 c-38 -39 -53 -61 -46 -68 7 -7 24 5 54
35 24 25 47 45 50 45 4 0 7 -21 8 -48 7 -155 101 -652 123 -652 18 0 15 22
-17 160 -31 131 -61 315 -79 475 l-7 60 45 -43 c66 -65 74 -34 8 32 l-51 52 0
89 c1 196 54 328 184 459 68 68 220 186 240 186 3 0 6 -57 6 -127 l0 -126 -51
-54 c-102 -107 -128 -234 -80 -391 22 -71 22 -74 5 -152 -10 -44 -14 -83 -10
-87 10 -11 23 14 30 60 4 22 9 44 12 49 3 5 24 -26 46 -69 93 -179 224 -371
240 -355 7 7 1 23 -19 49 -79 101 -242 378 -229 390 3 3 25 0 50 -6 57 -14 66
-14 66 2 0 8 -25 18 -66 26 -63 13 -66 15 -83 55 -26 61 -44 171 -37 224 8 62
47 139 91 182 l35 34 0 -167 0 -167 500 0 500 0 0 830 0 830 36 0 c45 0 42 24
-4 28 l-32 3 0 139 0 139 50 -6 c34 -4 50 -2 50 5 0 11 -21 19 -70 24 l-25 3
-3 167 -2 166 42 -1 c60 -3 65 17 6 21 l-48 3 0 1050 0 1049 -500 0 -500 0 -2
-521 -3 -522 -115 60 c-139 72 -286 162 -480 294 -246 167 -347 251 -815 675
-183 165 -799 656 -952 758 -175 116 -310 183 -493 244 -613 203 -1061 151
-1665 -196 l-120 -69 -78 10 c-42 6 -80 7 -84 3 -12 -12 19 -26 57 -26 74 -1
65 -15 -55 -89 -125 -78 -305 -207 -407 -291 -272 -225 -659 -621 -894 -915
-139 -173 -733 -970 -897 -1202 -86 -122 -184 -261 -219 -307 l-63 -86 -497 0
c-274 0 -501 1 -505 3 -5 1 -6 7 -5 12 2 6 28 104 58 219 67 257 91 328 164
481 73 155 153 295 365 640 94 154 200 331 235 393 34 62 64 111 66 109 2 -2
12 -28 22 -57 10 -30 24 -56 30 -58 18 -6 14 23 -13 89 l-24 61 51 111 c150
329 235 678 313 1292 32 255 32 257 18 262 -7 3 -13 1 -13 -4z m3715 -308
c303 -38 618 -148 860 -301 126 -80 239 -165 555 -418 306 -244 344 -277 580
-491 358 -326 454 -403 736 -592 224 -150 383 -245 501 -300 l73 -34 0 -144
c0 -80 -2 -145 -5 -145 -16 0 -220 80 -380 150 -104 45 -255 109 -335 142
-131 54 -959 335 -1429 484 l-183 58 -560 -27 -561 -27 -316 -164 c-174 -90
-365 -191 -424 -224 l-108 -60 -62 9 c-83 12 -87 11 -87 -6 0 -10 11 -15 33
-16 76 -1 69 -12 -66 -93 -378 -227 -496 -323 -899 -727 l-317 -319 -775 -2
c-427 -2 -775 0 -774 3 12 27 446 627 712 983 522 699 590 780 931 1122 211
212 386 368 541 486 57 44 379 258 387 258 2 0 0 -23 -4 -52 -5 -28 -6 -55 -3
-60 14 -22 23 -2 30 62 l7 70 96 57 c473 278 831 370 1246 318z m-7165 -1235
l0 -139 -46 -32 c-77 -53 -203 -106 -349 -147 -77 -22 -157 -42 -177 -46 -24
-4 -38 -12 -38 -22 0 -11 7 -13 28 -8 247 56 449 129 544 195 14 11 29 19 32
19 3 0 6 -42 6 -94 0 -71 -4 -98 -15 -110 -27 -27 -161 -106 -222 -131 -65
-26 -245 -73 -385 -101 -82 -16 -97 -22 -83 -36 12 -12 295 51 437 98 43 14
118 50 167 80 50 30 93 54 96 54 3 0 5 -65 5 -144 0 -112 -3 -146 -14 -155
-22 -19 -171 -67 -276 -89 -103 -23 -392 -62 -452 -62 -27 0 -38 -4 -38 -15 0
-19 11 -19 209 6 244 30 411 67 554 124 16 7 17 -4 17 -139 0 -142 -1 -147
-22 -156 -35 -15 -307 -66 -460 -86 -96 -13 -138 -22 -138 -31 0 -7 7 -13 16
-13 31 0 351 51 444 71 52 11 110 23 128 26 l32 6 0 -172 c0 -94 -3 -171 -7
-171 -122 -2 -561 -56 -577 -71 -20 -18 5 -19 100 -5 107 17 245 31 392 42
l92 7 0 -188 0 -188 -107 6 c-535 31 -551 32 -530 11 3 -3 108 -12 234 -19
125 -8 267 -17 316 -21 l87 -6 0 -172 c0 -95 -2 -175 -5 -178 -3 -2 -40 1 -82
8 -138 22 -502 58 -509 51 -4 -4 -5 -10 -1 -13 3 -3 104 -17 224 -30 120 -13
252 -30 293 -37 l75 -12 3 -140 c1 -76 1 -144 -2 -151 -3 -8 -21 -8 -68 2 -93
20 -346 53 -461 61 -83 5 -99 4 -95 -8 3 -10 34 -16 114 -21 117 -8 365 -41
454 -61 l55 -12 3 -155 c1 -85 0 -160 -2 -167 -4 -10 -16 -9 -56 3 -76 23
-354 79 -518 105 -104 16 -146 19 -154 11 -13 -13 -24 -11 252 -57 118 -19
274 -50 345 -68 l130 -32 3 -159 3 -158 -23 5 c-13 3 -108 34 -213 69 -235 80
-353 114 -362 105 -3 -4 -4 -9 -1 -12 2 -3 90 -32 194 -64 104 -33 236 -77
294 -98 l105 -38 3 -74 c3 -73 3 -73 -20 -67 -145 43 -374 76 -610 91 -79 4
-98 3 -98 -8 0 -11 28 -16 118 -21 224 -13 432 -43 560 -81 l52 -16 0 -144 c0
-80 -2 -145 -4 -145 -2 0 -35 18 -72 40 -140 82 -285 128 -534 170 -69 11
-135 23 -147 26 -16 3 -23 0 -23 -11 0 -8 3 -15 8 -15 28 0 315 -55 397 -76
107 -28 255 -92 329 -144 l46 -31 0 -116 0 -115 -32 24 c-156 118 -248 159
-486 219 -170 42 -213 49 -219 33 -2 -6 40 -20 104 -33 291 -60 461 -132 596
-250 36 -33 37 -34 37 -107 l0 -74 -450 0 -450 0 0 2170 0 2170 450 0 450 0 0
-140z m11418 -727 l-3 -848 -80 -14 c-44 -7 -145 -14 -225 -14 -159 -1 -246
12 -457 66 l-124 32 -2 133 c-1 72 -1 132 0 132 1 0 48 -12 105 -26 92 -24
127 -27 328 -31 256 -5 411 5 418 25 3 11 -15 12 -99 6 -278 -21 -542 -5 -696
41 l-52 15 -3 140 c-2 77 0 140 4 140 4 0 49 -14 100 -30 127 -41 242 -54 423
-46 187 9 225 14 225 33 0 10 -6 13 -17 9 -38 -15 -418 -19 -488 -6 -63 12
-231 62 -241 72 -2 3 -7 912 -4 1011 0 4 200 7 445 7 l445 0 -2 -847z m-2876
212 c530 -172 1010 -333 1118 -375 47 -18 202 -83 345 -145 143 -61 306 -129
363 -150 l102 -38 0 -132 0 -132 -67 19 c-38 10 -169 45 -293 78 -124 32 -321
88 -438 124 -531 163 -717 194 -1055 176 -188 -10 -256 -19 -453 -56 -283 -52
-643 -174 -870 -292 -67 -36 -77 -38 -121 -31 -71 12 -83 11 -83 -6 0 -10 10
-15 34 -15 50 0 51 -13 3 -40 -128 -72 -323 -208 -523 -366 l-146 -115 -823
-2 -823 -2 48 55 c94 108 577 577 675 656 55 45 143 110 195 146 95 65 385
243 416 255 14 5 15 -2 9 -61 -5 -44 -4 -66 3 -66 13 0 19 19 27 92 3 31 12
61 18 66 20 16 325 180 582 312 l240 124 530 27 c292 14 540 27 552 28 12 0
207 -60 435 -134z m545 -624 c153 -29 307 -69 576 -152 125 -38 330 -97 455
-129 125 -33 255 -68 290 -77 l62 -17 0 -118 c0 -65 -2 -118 -4 -118 -2 0 -86
24 -187 54 -475 140 -691 176 -1064 176 -414 0 -722 -63 -1010 -207 l-90 -45
-82 7 c-52 4 -83 3 -83 -3 0 -13 25 -22 64 -22 18 0 35 -3 39 -6 3 -4 -31 -29
-76 -56 -45 -28 -113 -72 -150 -100 -38 -27 -74 -51 -80 -54 -7 -2 -290 -5
-630 -7 l-618 -2 28 23 c85 71 291 227 373 284 109 76 308 198 322 198 8 0 5
-58 -8 -117 -3 -15 0 -23 10 -23 10 0 17 24 26 84 l12 84 96 45 c371 174 804
289 1207 321 126 10 412 -3 522 -23z m1693 -455 c197 -42 305 -49 458 -32 73
9 144 19 158 22 l24 6 0 -162 0 -162 -67 6 c-367 37 -604 78 -790 137 l-33 11
0 118 0 119 68 -20 c37 -10 119 -30 182 -43z m-1235 34 c210 -20 451 -76 828
-192 l97 -30 0 -164 0 -165 -22 13 c-16 9 -75 13 -183 14 l-160 2 -275 70
c-332 84 -478 107 -634 99 -115 -6 -258 -37 -350 -76 -46 -20 -67 -21 -552
-24 -277 -1 -504 -1 -504 0 0 9 281 193 296 193 3 0 2 -29 -1 -65 -5 -45 -4
-65 4 -65 6 0 11 1 12 3 0 1 6 36 12 77 l12 75 95 47 c183 91 445 164 670 187
122 12 526 13 655 1z m1100 -269 c198 -52 405 -86 640 -106 39 -3 85 -8 103
-11 l32 -5 0 -159 0 -160 -27 0 c-16 1 -216 29 -446 63 l-418 62 -2 173 c-1
94 0 172 3 172 3 0 55 -13 115 -29z m-10110 -50 c345 -11 407 -19 498 -68 106
-58 164 -152 261 -422 73 -201 116 -281 183 -339 l53 -47 0 -142 0 -143 183
-1 182 -1 -60 -19 c-137 -45 -274 -32 -405 37 -87 45 -156 103 -363 302 -184
177 -265 236 -474 345 -80 41 -133 74 -133 83 0 8 5 35 11 59 14 54 6 89 -26
121 -48 48 -129 24 -150 -44 -6 -22 -9 -21 -62 28 -45 41 -61 50 -92 50 -54 0
-77 -28 -74 -91 1 -27 -2 -49 -7 -49 -6 0 -10 73 -10 183 l0 182 83 -7 c45 -4
226 -12 402 -17z m8952 -81 c65 -11 195 -40 288 -65 94 -24 213 -53 265 -65
52 -11 105 -23 118 -25 l23 -6 -20 -32 c-58 -95 -21 -205 79 -235 19 -6 48
-14 64 -19 16 -4 30 -12 30 -18 2 -22 -58 -15 -121 14 -36 17 -69 31 -74 31
-5 0 -9 -25 -9 -55 0 -52 -1 -55 -22 -51 -13 3 -57 12 -99 20 -95 19 -164 45
-364 139 -220 103 -285 122 -410 122 l-100 -1 0 96 0 95 -132 0 c-73 0 -129 3
-125 6 11 10 100 37 172 53 99 21 297 20 437 -4z m-7392 -191 c-35 -83 -152
-303 -212 -397 -46 -73 -119 -150 -165 -173 -20 -10 -58 -19 -83 -19 l-45 0 0
335 0 335 270 0 269 0 -34 -81z m1035 75 c0 -12 -176 -210 -282 -317 l-107
-109 -76 7 c-48 5 -75 4 -75 -3 0 -12 34 -22 85 -22 l40 -1 -52 -48 c-147
-137 -344 -276 -513 -363 l-105 -53 -227 -3 -228 -3 0 109 0 109 55 6 c98 10
171 68 260 205 69 109 193 341 223 419 l27 73 488 0 c268 0 487 -3 487 -6z
m1520 -55 c-36 -33 -143 -130 -237 -215 l-173 -155 -60 9 c-46 7 -60 6 -60 -3
0 -14 31 -25 68 -25 12 0 22 -3 21 -7 -2 -23 -500 -450 -533 -459 -12 -2 -370
-3 -796 -2 l-775 3 75 39 c144 74 290 176 458 319 l93 79 -7 -66 c-5 -44 -3
-66 4 -66 14 0 19 19 28 100 l7 65 108 108 c60 60 153 160 206 223 l96 114
771 0 771 -1 -65 -60z m1598 -61 c-170 -144 -483 -456 -658 -656 l-125 -142
-862 0 c-475 0 -863 3 -862 8 0 4 39 39 86 77 102 83 273 234 360 318 34 34
65 58 68 56 3 -3 1 -35 -4 -70 -8 -56 -2 -93 13 -78 7 7 26 160 21 169 -3 4
57 63 132 131 76 68 183 166 237 217 l100 92 819 0 818 0 -143 -122z m1377 89
c-267 -215 -629 -575 -825 -819 l-54 -68 -619 0 c-363 0 -617 4 -615 9 2 5 71
85 155 178 193 214 427 445 617 606 l148 127 617 0 616 -1 -40 -32z m1010 10
c-276 -158 -632 -497 -846 -805 l-63 -92 -468 0 c-257 0 -468 3 -468 8 0 15
208 250 345 391 147 151 342 331 485 450 l85 70 485 0 485 1 -40 -23z m445
-57 l0 -80 -48 -24 c-112 -57 -227 -164 -324 -301 -59 -84 -105 -171 -168
-320 l-46 -110 -362 -3 c-209 -1 -362 2 -362 7 0 13 106 159 193 265 104 126
338 352 464 448 55 43 145 105 200 138 l98 60 178 0 177 0 0 -80z m1910 -90
c223 -33 411 -60 417 -60 10 0 13 -36 13 -146 l0 -146 -132 6 c-154 8 -566 35
-680 44 -43 4 -78 10 -78 15 0 4 0 86 0 182 l0 175 28 -5 c15 -3 209 -32 432
-65z m-1535 -33 c50 -19 162 -69 251 -111 152 -71 258 -106 368 -122 35 -5 55
-14 73 -34 42 -48 165 -65 248 -35 78 28 75 35 75 -148 l0 -164 -152 -7 c-84
-3 -193 -11 -243 -16 -190 -20 -354 -5 -459 43 -85 39 -199 129 -343 270
l-133 130 0 113 c0 132 -9 124 130 120 81 -3 108 -8 185 -39z m953 21 c45 -17
62 -28 62 -41 0 -18 -1 -18 -25 1 -13 10 -45 25 -70 32 -44 12 -70 30 -43 30
7 0 41 -10 76 -22z m-10347 -132 c-2 -89 1 -142 9 -156 10 -18 9 -21 -2 -18
-10 4 -14 41 -16 163 -1 87 1 156 5 152 4 -4 6 -68 4 -141z m8980 -240 c-50
-130 -68 -183 -96 -281 l-22 -80 -197 -3 c-125 -1 -196 1 -196 8 0 42 121 292
193 400 65 97 205 235 287 283 l65 37 3 -131 3 -131 -40 -102z m-8469 228
c121 -61 257 -145 326 -204 31 -26 127 -114 212 -196 85 -82 173 -163 195
-180 49 -39 157 -98 206 -113 114 -36 248 -29 390 19 l87 30 813 -2 813 -3
-115 -76 c-313 -209 -424 -249 -929 -333 -349 -58 -471 -70 -640 -63 -289 13
-426 72 -788 341 -148 109 -595 401 -737 480 -27 16 -94 47 -148 71 l-98 42
25 17 c14 9 30 34 37 56 7 22 16 40 20 40 5 0 22 -26 38 -59 27 -52 34 -59 66
-64 87 -14 120 29 120 155 0 48 3 88 8 88 4 0 48 -21 99 -46z m10248 -189
c113 -8 266 -17 340 -20 74 -3 163 -8 198 -11 l62 -6 0 -134 0 -134 -445 0
-445 0 0 166 0 165 43 -5 c23 -4 134 -13 247 -21z m-10620 -46 c116 -44 213
-96 435 -237 271 -172 348 -223 495 -332 390 -289 523 -342 860 -343 182 -1
244 6 595 64 411 69 539 106 730 212 94 52 243 149 306 199 l37 28 883 0 884
-1 -51 -47 c-28 -26 -55 -54 -60 -64 -5 -9 -74 -90 -154 -180 -163 -182 -215
-246 -380 -463 -217 -286 -368 -446 -517 -546 -91 -62 -284 -156 -408 -199
-357 -124 -739 -152 -1012 -74 -102 28 -307 127 -440 210 l-91 58 -10 69 c-11
73 -15 82 -30 73 -6 -3 -6 -25 0 -57 5 -28 8 -53 6 -55 -2 -2 -40 20 -84 48
-43 28 -162 101 -264 163 -340 206 -924 591 -1225 808 -286 207 -452 307 -592
357 l-63 23 0 169 0 169 23 -6 c12 -4 69 -25 127 -46z m8880 -169 l0 -190 -65
0 c-36 0 -65 1 -65 3 0 26 117 377 126 377 2 0 4 -85 4 -190z m2340 -775 l0
-655 -445 0 -445 0 0 168 0 168 53 31 c76 47 186 94 323 142 115 39 128 42
277 48 87 3 157 9 157 13 0 15 -108 20 -221 11 -82 -7 -139 -18 -200 -39 -134
-47 -238 -90 -317 -133 -41 -21 -74 -39 -75 -39 -1 0 -1 56 1 125 l3 126 32
20 c80 48 438 155 588 175 32 4 49 11 49 20 0 19 -2 19 -184 -22 -177 -39
-377 -102 -443 -139 l-43 -24 0 178 0 178 48 7 c26 3 193 10 372 16 179 5 326
9 328 10 1 0 2 7 2 15 0 12 -16 14 -92 10 -51 -3 -194 -7 -318 -11 -124 -3
-251 -9 -282 -13 l-58 -7 0 138 0 138 445 0 445 0 0 -655z"/>
<path d="M6400 3595 l0 -195 25 0 24 0 3 156 3 156 83 -156 c83 -155 84 -156
118 -156 l34 0 0 195 0 195 -25 0 -25 0 0 -162 0 -163 -86 163 c-85 161 -85
162 -120 162 l-34 0 0 -195z"/>
</g>
</svg>
